# xmcd
#
# Track frame offsets:
# 150
# 8763
# 24795
# 44448
# 68061
# 79898
# 95375
# 111085
# 133755
#
# Disc length: 1975 seconds
#
#
# Revision: 0
# Processed by: cddbd v1.4PL0 Copyright (c) Steve Scherf et al.
# Submitted via: FreeRIP 2.30 
#
DISCID=6807b509
DTITLE=B.B. King - The Blues Boss
DYEAR=1900
DGENRE=Blues
TTITLE0=A New Way Of Driving
TTITLE1=It's My Own Fault Baby
TTITLE2=How Blue Can You Get
TTITLE3=You Done Lost Your Good Thing
TTITLE4=Paying The Cost To Be The Boss
TTITLE5=Walking' And Crying'
TTITLE6=The Letter
TTITLE7=Everyday I Have The Blues
TTITLE8=B.B. Boogie
EXTD=
EXTT0=
EXTT1=
EXTT2=
EXTT3=
EXTT4=
EXTT5=
EXTT6=
EXTT7=
EXTT8=
PLAYORDER=
